<svg width="104" height="38" viewBox="0 0 104 38" fill="none" xmlns="http://www.w3.org/2000/svg">
<g opacity="0.8">
<path d="M39.8055 12.5742V20.2239H43.5919V22.0083H37.832V12.5742H39.8055Z" fill="black"/>
<path d="M44.5859 12.764C44.5859 12.194 45.0031 11.7148 45.6449 11.7148C46.2866 11.7148 46.7198 12.1857 46.7198 12.764C46.7198 13.3423 46.2786 13.8131 45.6449 13.8131C45.0111 13.8131 44.5859 13.3753 44.5859 12.764ZM46.6235 14.821V22.0164H44.6822V14.821H46.6235Z" fill="black"/>
<path d="M48.5176 23.833C48.5176 22.7508 49.1915 21.9495 50.106 21.3052C48.9508 21.1647 47.8438 20.256 47.8438 18.2651C47.8438 15.8364 49.3038 14.6055 51.3414 14.6055C52.1516 14.6055 53.2988 14.7789 54.085 15.1177V21.0326C54.085 21.4621 54.0609 22.3213 53.9887 22.7178C53.7801 24.6178 52.7613 25.7579 50.9002 25.7579C49.3278 25.7579 48.5176 25.0226 48.5176 23.8248V23.833ZM52.1596 19.0747V16.1668C51.927 16.0677 51.6382 16.0264 51.3173 16.0264C50.4108 16.0264 49.7771 16.8029 49.7771 18.2155C49.7771 19.1986 49.9135 20.2973 51.0446 20.2973C51.6623 20.2973 52.1596 19.8595 52.1596 19.0747ZM52.1837 22.4369V21.173C50.9964 21.8091 50.2103 22.5526 50.2103 23.4861C50.2103 24.0809 50.5392 24.3204 51.0526 24.3204C51.919 24.3204 52.1837 23.5687 52.1837 22.4369Z" fill="black"/>
<path d="M57.5269 12.1523V15.2998C57.952 14.8454 58.5858 14.6059 59.2516 14.6059C60.7116 14.6059 61.4818 15.4402 61.4818 17.1338V22.016H59.5484V17.4311C59.5484 16.6794 59.4121 16.1424 58.6821 16.1424C58.0082 16.1424 57.5269 16.7124 57.5269 17.3733V22.016H55.6016V12.1523H57.5269Z" fill="black"/>
<path d="M63.0391 19.7029V12.1523H64.9644V14.8207H66.7693V16.3655H64.9644V19.6451C64.9644 20.4795 65.3334 20.7273 65.8468 20.7273C66.1757 20.7273 66.4645 20.6034 66.6891 20.4547L67.1464 21.7351C66.7212 22.016 65.9992 22.2308 65.3013 22.2308C63.2236 22.2308 63.0391 20.9917 63.0391 19.7029Z" fill="black"/>
<path d="M70.0516 12.5742V16.333H73.5252V12.5742H75.5227V22.0083H73.5252V18.1091H70.0516V22.0083H68.0781V12.5742H70.0516Z" fill="black"/>
<path d="M76.8672 18.4386C76.8672 15.4729 78.6962 14.6055 80.1643 14.6055C81.2152 14.6055 83.2528 14.9359 83.2528 18.2238C83.2528 20.9334 81.8088 22.2304 79.9477 22.2304C78.0866 22.2304 76.8752 21.0078 76.8752 18.4386H76.8672ZM81.2794 18.4551C81.2794 16.9351 80.9745 16.0594 80.068 16.0594C79.2257 16.0594 78.8406 16.9351 78.8406 18.2155C78.8406 19.496 79.0091 20.7847 80.052 20.7847C80.9184 20.7847 81.2794 19.9091 81.2794 18.4551Z" fill="black"/>
<path d="M84.4572 19.67V14.8125H86.3825V19.3561C86.3825 20.1326 86.5029 20.6861 87.281 20.6861C87.8987 20.6861 88.4121 20.0913 88.4121 19.4965V14.8125H90.3455V20.7274L90.4658 22.0079H88.8373L88.725 21.2313H88.6688C88.2116 21.9005 87.5217 22.1979 86.7516 22.1979C85.2193 22.1979 84.4492 21.3635 84.4492 19.67H84.4572Z" fill="black"/>
<path d="M91.3874 21.4704L91.9088 20.066C92.3901 20.3799 93.2485 20.7765 93.9464 20.7765C94.4117 20.7765 94.7967 20.5369 94.7967 20.0247C94.7967 19.4712 94.3315 19.2977 93.7458 19.116C92.727 18.8021 91.5799 18.4469 91.5799 16.9599C91.5799 15.4729 92.8073 14.6055 94.1951 14.6055C95.254 14.6055 96.1926 15.035 96.8103 15.6381L95.9118 16.7864C95.3503 16.3155 94.7807 16.0346 94.2753 16.0346C93.818 16.0346 93.449 16.2742 93.449 16.7616C93.449 17.2903 93.9143 17.4886 94.5481 17.6951C95.5508 18.0338 96.682 18.4221 96.682 19.8843C96.682 21.4208 95.591 22.2304 93.9946 22.2304C92.7672 22.2304 91.7483 21.776 91.3633 21.4786L91.3874 21.4704Z" fill="black"/>
<path d="M97.4766 18.5956C97.4766 16.5055 98.6638 14.6055 100.918 14.6055C102.314 14.6055 103.204 15.3324 103.204 16.6873C103.204 18.8186 100.918 19.1821 99.4259 19.2399C99.5062 20.0082 99.9634 20.7269 100.998 20.7269C101.744 20.7269 102.346 20.3882 102.723 20.1156L103.277 21.4208C103.124 21.5613 102.161 22.2139 100.758 22.2139C98.4312 22.2139 97.4766 20.7104 97.4766 18.579V18.5956ZM101.512 16.7368C101.512 16.2825 101.239 16.0098 100.806 16.0098C99.8832 16.0098 99.4019 16.8855 99.3618 17.9099C100.108 17.8934 101.512 17.6538 101.512 16.7285V16.7368Z" fill="black"/>
<path d="M26.0879 4.60966C23.2 1.63568 19.3654 0 15.2821 0C11.1989 0 7.3643 1.63568 4.47633 4.60966C1.58837 7.58364 0 11.5325 0 15.7373C0 23.3622 5.16624 29.7563 12.3701 31.1855V36.7204C12.3701 36.9434 12.4663 37.1582 12.6349 37.2986C12.7632 37.406 12.9316 37.4721 13.1001 37.4721C13.1482 37.4721 13.1964 37.4721 13.2445 37.4556C23.2801 35.4068 30.5643 26.2784 30.5643 15.7373C30.5643 11.5325 28.9759 7.58364 26.0879 4.60966Z" fill="#0A1700"/>
<path d="M13.8228 35.7874V31.3678C14.9539 31.3926 16.093 31.1034 17.0878 30.5251C17.4407 30.3269 17.5611 29.8643 17.3685 29.509C17.176 29.1455 16.7268 29.0217 16.3818 29.2199C15.6037 29.666 14.7052 29.889 13.8308 29.8725V26.2294C13.8308 25.8164 13.5019 25.4776 13.1008 25.4776H11.7852L13.7105 14.2344H16.8551L20.064 32.9786C18.1868 34.2509 16.093 35.2174 13.8228 35.7874Z" fill="white"/>
<path d="M13.7188 6.7414L15.2831 5.46094L16.8474 6.7414H13.7188Z" fill="white"/>
<path d="M13.8203 8.24414H16.7323V10.4911H13.8203V8.24414Z" fill="white"/>
<path d="M12.3672 11.9863H18.1912V12.7381H12.3672V11.9863Z" fill="white"/>
<path d="M21.3725 32.0124L18.3241 14.2429H18.9096C19.3108 14.2429 19.6397 13.9042 19.6397 13.4911V11.2441C19.6397 10.831 19.3108 10.4924 18.9096 10.4924H18.1797V8.24536H18.9096C19.2225 8.24536 19.4953 8.0471 19.5996 7.74144C19.7039 7.44404 19.6076 7.10532 19.3669 6.90706L15.7249 3.90832C15.4602 3.69353 15.0831 3.69353 14.8184 3.90832L11.1763 6.90706C10.9357 7.10532 10.8394 7.44404 10.9437 7.74144C11.048 8.03884 11.3207 8.24536 11.6336 8.24536H12.3636V10.4924H11.6336C11.2325 10.4924 10.9036 10.831 10.9036 11.2441V13.4911C10.9036 13.9042 11.2325 14.2429 11.6336 14.2429H12.2192L10.1896 26.1058C10.1495 26.3205 10.2137 26.5435 10.3501 26.717C10.4864 26.8906 10.695 26.9814 10.9036 26.9814H12.3556V29.658C5.97802 28.2619 1.4375 22.5369 1.4375 15.7381C1.4375 11.938 2.87345 8.361 5.48866 5.6679C8.09585 2.98306 11.5694 1.49609 15.2676 1.49609C18.9578 1.49609 22.4314 2.9748 25.0466 5.6679C27.6538 8.361 29.0978 11.9298 29.0978 15.7381C29.0978 22.2561 26.1055 28.1875 21.3644 32.0124H21.3725Z" fill="#FDD700"/>
<path d="M14.9838 20.082C14.5025 20.082 14.1094 20.4868 14.1094 20.9825C14.1094 21.4781 14.5025 21.8829 14.9838 21.8829C15.4651 21.8829 15.8582 21.4781 15.8582 20.9825C15.8582 20.4868 15.4651 20.082 14.9838 20.082Z" fill="black"/>
</g>
</svg>
